<?xml version="1.0" standalone="no"?>
<!DOCTYPE svg PUBLIC "-//W3C//DTD SVG 20010904//EN"
 "http://www.w3.org/TR/2001/REC-SVG-20010904/DTD/svg10.dtd">
<svg version="1.0" xmlns="http://www.w3.org/2000/svg"
 width="186.000000pt" height="297.000000pt" viewBox="0 0 186.000000 297.000000"
 preserveAspectRatio="xMidYMid meet">

<g transform="translate(0.000000,297.000000) scale(0.100000,-0.100000)"
fill="#000000" stroke="none">
<path d="M740 2951 c-298 -65 -529 -247 -656 -514 -48 -103 -75 -214 -81 -343
-12 -247 51 -402 362 -884 181 -281 222 -352 308 -528 104 -212 187 -447 219
-618 11 -60 13 -64 39 -64 26 0 28 4 39 58 21 103 72 275 117 392 90 235 203
440 447 815 65 99 156 257 202 350 71 142 88 187 106 270 38 190 11 393 -76
570 -120 241 -332 413 -594 482 -133 35 -312 41 -432 14z"/>
</g>
</svg>
